<svg width="36" height="34" viewBox="0 0 36 34" fill="none" xmlns="http://www.w3.org/2000/svg">
<path fill-rule="evenodd" clip-rule="evenodd" d="M0.5 5.8C0.5 2.9219 3.00141 0.85 5.75 0.85H30.25C32.9986 0.85 35.5 2.9219 35.5 5.8V12.2V28.2C35.5 31.0781 32.9986 33.15 30.25 33.15H12.75H5.75C3.0014 33.15 0.5 31.0781 0.5 28.2V12.2V5.8ZM14.5 29.65H30.25C31.3674 29.65 32 28.8565 32 28.2V13.95H14.5V29.65ZM11 13.95V29.65H5.75C4.6326 29.65 4 28.8565 4 28.2V13.95H11ZM12.75 10.45H32V5.8C32 5.1435 31.3674 4.35 30.25 4.35H5.75C4.63259 4.35 4 5.1435 4 5.8V10.45H12.75Z" fill="#6C5CE7"/>
</svg>
